<svg width="200" height="200" xmlns="http://www.w3.org/2000/svg">
  <!-- Blue background circle -->
  <circle cx="100" cy="100" r="95" fill="#19398A"/>
  <!-- White border -->
  <circle cx="100" cy="100" r="95" fill="none" stroke="white" stroke-width="4"/>

  <!-- Price candles (background) in lighter color -->
  <line x1="60" y1="70" x2="60" y2="110" stroke="rgba(255,255,255,0.3)" stroke-width="2"/>
  <rect x="55" y="80" width="10" height="20" fill="rgba(255,255,255,0.3)"/>

  <line x1="80" y1="60" x2="80" y2="120" stroke="rgba(255,255,255,0.3)" stroke-width="2"/>
  <rect x="75" y="75" width="10" height="30" fill="rgba(255,255,255,0.3)"/>

  <line x1="100" y1="80" x2="100" y2="130" stroke="rgba(255,255,255,0.3)" stroke-width="2"/>
  <rect x="95" y="95" width="10" height="25" fill="rgba(255,255,255,0.3)"/>

  <line x1="120" y1="70" x2="120" y2="115" stroke="rgba(255,255,255,0.3)" stroke-width="2"/>
  <rect x="115" y="85" width="10" height="20" fill="rgba(255,255,255,0.3)"/>

  <line x1="140" y1="65" x2="140" y2="105" stroke="rgba(255,255,255,0.3)" stroke-width="2"/>
  <rect x="135" y="75" width="10" height="20" fill="rgba(255,255,255,0.3)"/>

  <!-- SMA smooth averaging line over candles -->
  <path d="M 55 90 L 75 85 L 95 105 L 115 95 L 140 85"
        stroke="white" stroke-width="6" fill="none"
        stroke-linecap="round" stroke-linejoin="round"/>

  <!-- Small dots on the line to emphasize averaging -->
  <circle cx="55" cy="90" r="4" fill="white"/>
  <circle cx="75" cy="85" r="4" fill="white"/>
  <circle cx="95" cy="105" r="4" fill="white"/>
  <circle cx="115" cy="95" r="4" fill="white"/>
  <circle cx="140" cy="85" r="4" fill="white"/>
</svg>
